<svg xmlns="http://www.w3.org/2000/svg" width="17.42" height="17.423" viewBox="0 0 17.42 17.423">
  <g id="time-svgrepo-com" transform="translate(0 0)">
    <g id="Group_71" data-name="Group 71" transform="translate(0 0)">
      <path id="Path_70" data-name="Path 70" d="M17.409,7.794A8.7,8.7,0,0,0,1.469,3.935a.716.716,0,0,0,.185,1,.725.725,0,0,0,1-.221,7.3,7.3,0,0,1,5.3-3.225c3.692-.381,7.256,1.867,8.008,6.45a7.27,7.27,0,0,1-13.2,4.925l1.372.3a.719.719,0,0,0,.3-1.408l-2.89-.631a.75.75,0,0,0-.891.556L.061,14.615a.717.717,0,0,0,.556.852.745.745,0,0,0,.852-.592l.221-1c2.833,3.967,7.673,3.557,7.972,3.528A8.508,8.508,0,0,0,17.409,7.794Z" transform="translate(-0.047 0)" fill="#ed252c"/>
      <path id="Path_71" data-name="Path 71" d="M240.388,129.2a.745.745,0,0,0-.741.741v3.375a.745.745,0,0,0,.221.52l3.375,3.375a.823.823,0,0,0,1.076.036.717.717,0,0,0,0-1.037l-3.19-3.19v-3.076A.741.741,0,0,0,240.388,129.2Z" transform="translate(-231.108 -124.595)" fill="#ed252c"/>
    </g>
  </g>
</svg>
