<svg xmlns="http://www.w3.org/2000/svg" width="44.677" height="21.442" viewBox="0 0 44.677 21.442">
  <g id="car-svgrepo-com" transform="translate(0 -8.177)">
    <g id="Group_9" data-name="Group 9" transform="translate(0 8.177)">
      <path id="Path_37" data-name="Path 37" d="M8.94,16.86a4.552,4.552,0,1,0,4.551,4.552A4.55,4.55,0,0,0,8.94,16.86Zm0,5.928a1.374,1.374,0,1,1,1.373-1.374A1.378,1.378,0,0,1,8.94,22.788Z" transform="translate(1.847 -4.523)" fill="#0f0f0f"/>
      <path id="Path_38" data-name="Path 38" d="M43.926,21.337l-.745-6.056a2.23,2.23,0,0,0-2.334-1.951l-1.631.091L34.152,8.859a2.65,2.65,0,0,0-1.775-.681H22.089a10.135,10.135,0,0,0-6.348,2.235L10,15.024,2.28,16.954A2.228,2.228,0,0,0,.592,19.115V21.34a.59.59,0,0,0-.592.59v2.943a.759.759,0,0,0,.759.759H5.116c-.018-.189-.057-.369-.057-.563a5.725,5.725,0,0,1,11.451,0,5.586,5.586,0,0,1-.058.563H28.519c-.017-.189-.055-.369-.055-.563a5.724,5.724,0,1,1,11.448,0,5.2,5.2,0,0,1-.057.563H43.92a.757.757,0,0,0,.757-.759V22.1A.75.75,0,0,0,43.926,21.337ZM28.656,13.9,14.3,14.622l2.748-2.209a8.4,8.4,0,0,1,5.266-1.854h6.34Zm2.384-.121V10.56h.933a1.3,1.3,0,0,1,.875.337l2.93,2.637Z" transform="translate(0 -8.177)" fill="#0f0f0f"/>
      <path id="Path_39" data-name="Path 39" d="M25.412,16.86a4.552,4.552,0,1,0,4.551,4.552A4.55,4.55,0,0,0,25.412,16.86Zm0,5.928a1.374,1.374,0,1,1,1.374-1.374A1.376,1.376,0,0,1,25.412,22.788Z" transform="translate(8.779 -4.523)" fill="#0f0f0f"/>
    </g>
  </g>
</svg>
