<svg xmlns="http://www.w3.org/2000/svg" width="21.422" height="18.885" viewBox="0 0 21.422 18.885">
  <g id="Group_70" data-name="Group 70" transform="translate(0 0)">
    <path id="Path_66" data-name="Path 66" d="M8.019,282.52l3.495,1.06a.437.437,0,0,1-.022.071.681.681,0,0,1-.6.445,18.435,18.435,0,0,1-3.072.067.533.533,0,1,0-.067,1.064,18.782,18.782,0,0,0,3.308-.08,1.823,1.823,0,0,0,1.554-2.008.535.535,0,0,0-.378-.463l-3.913-1.184a6.285,6.285,0,0,0-4.14.539.112.112,0,0,0-.031.018L.259,284.4a.534.534,0,0,0,.276.993.572.572,0,0,0,.276-.076l3.878-2.337A5.134,5.134,0,0,1,8.019,282.52Z" transform="translate(0 -270.064)" fill="#ed252c"/>
    <path id="Path_67" data-name="Path 67" d="M70.557,265.946a2.036,2.036,0,0,0-2.716-.815c-1.371.61-4.269,2-4.3,2.017a.534.534,0,1,0,.463.962c.031-.013,2.912-1.4,4.269-2a1.006,1.006,0,0,1,.993,0l.022.013-7.261,5.32a2.426,2.426,0,0,1-1.8.436l-6.478-1.033a.549.549,0,0,0-.427.116l-1.638,1.367a.531.531,0,0,0-.067.752.542.542,0,0,0,.41.191.534.534,0,0,0,.343-.125l1.451-1.211,6.242,1a3.494,3.494,0,0,0,2.6-.628l7.746-5.672A.538.538,0,0,0,70.557,265.946Z" transform="translate(-49.2 -254.384)" fill="#ed252c"/>
    <path id="Path_68" data-name="Path 68" d="M190.556,140.726a3.114,3.114,0,1,0-2.2-.913A3.106,3.106,0,0,0,190.556,140.726Zm-1.447-4.559a2.048,2.048,0,1,1,0,2.894A2.031,2.031,0,0,1,189.109,136.167Z" transform="translate(-179.096 -129.779)" fill="#ed252c"/>
    <path id="Path_69" data-name="Path 69" d="M287.371,33.359a2.431,2.431,0,1,0-1.718-.712A2.415,2.415,0,0,0,287.371,33.359Zm-.962-3.392a1.365,1.365,0,1,1,0,1.928A1.357,1.357,0,0,1,286.409,29.967Z" transform="translate(-272.256 -28.498)" fill="#ed252c"/>
  </g>
</svg>
