<svg xmlns="http://www.w3.org/2000/svg" width="17.857" height="17.857" viewBox="0 0 17.857 17.857">
  <path id="_6152983651639312910" data-name="6152983651639312910" d="M8.929,0a8.929,8.929,0,1,0,8.929,8.929A8.939,8.939,0,0,0,8.929,0ZM12.54,11.488a.372.372,0,0,1,0,.526l-.526.526a.372.372,0,0,1-.526,0L8.929,9.981,6.37,12.54a.372.372,0,0,1-.526,0l-.526-.526a.372.372,0,0,1,0-.526L7.877,8.929,5.317,6.37a.372.372,0,0,1,0-.526l.526-.526a.372.372,0,0,1,.526,0L8.929,7.877l2.559-2.559a.372.372,0,0,1,.526,0l.526.526a.372.372,0,0,1,0,.526L9.981,8.929Z" fill="#e4e4e4"/>
</svg>
