<svg xmlns="http://www.w3.org/2000/svg" width="66.678" height="32.001" viewBox="0 0 66.678 32.001">
  <g id="car-svgrepo-com" transform="translate(0 -8.177)">
    <g id="Group_9" data-name="Group 9" transform="translate(0 8.177)">
      <path id="Path_37" data-name="Path 37" d="M11.181,16.86a6.794,6.794,0,1,0,6.792,6.794A6.791,6.791,0,0,0,11.181,16.86Zm0,8.847a2.051,2.051,0,1,1,2.048-2.051A2.057,2.057,0,0,1,11.181,25.707Z" transform="translate(4.918 1.552)" fill="#0f0f0f"/>
      <path id="Path_38" data-name="Path 38" d="M65.556,27.817,64.445,18.78a3.327,3.327,0,0,0-3.484-2.911L58.526,16,50.969,9.195A3.956,3.956,0,0,0,48.32,8.179l-15.355,0a15.126,15.126,0,0,0-9.474,3.336L14.924,18.4,3.4,21.275A3.325,3.325,0,0,0,.884,24.5v3.321A.88.88,0,0,0,0,28.7v4.392a1.132,1.132,0,0,0,1.132,1.132h6.5c-.028-.282-.085-.551-.085-.84a8.545,8.545,0,0,1,17.089,0,8.337,8.337,0,0,1-.087.84h18.01c-.025-.282-.083-.551-.083-.84a8.543,8.543,0,1,1,17.085,0,7.764,7.764,0,0,1-.085.84h6.067a1.13,1.13,0,0,0,1.13-1.132V28.952A1.12,1.12,0,0,0,65.556,27.817ZM42.767,16.712,21.345,17.8l4.1-3.3A12.535,12.535,0,0,1,33.3,11.731h9.462Zm3.558-.18v-4.8h1.393a1.943,1.943,0,0,1,1.306.5L53.4,16.171Z" transform="translate(0 -8.177)" fill="#0f0f0f"/>
      <path id="Path_39" data-name="Path 39" d="M27.653,16.86a6.794,6.794,0,1,0,6.792,6.794A6.791,6.791,0,0,0,27.653,16.86Zm0,8.847A2.051,2.051,0,1,1,29.7,23.656,2.053,2.053,0,0,1,27.653,25.707Z" transform="translate(23.375 1.552)" fill="#0f0f0f"/>
    </g>
  </g>
</svg>
