<svg id="steering-fill-svgrepo-com" xmlns="http://www.w3.org/2000/svg" width="38" height="38" viewBox="0 0 38 38">
  <path id="Path_55" data-name="Path 55" d="M0,0H38V38H0Z" fill="none"/>
  <path id="Path_56" data-name="Path 56" d="M33.321,21a15.848,15.848,0,0,1-13.3,12.511V30.307A12.682,12.682,0,0,0,30.072,21ZM5.537,21a12.682,12.682,0,0,0,9.891,9.275v3.214A15.849,15.849,0,0,1,2.288,21H5.537ZM27.3,16.25v3.167H25.721A6.333,6.333,0,0,0,19.4,25.433l-.008.317v1.583H16.221V25.75A6.333,6.333,0,0,0,10.2,19.425l-.317-.008H8.3V16.25ZM17.8,2A15.834,15.834,0,0,1,33.559,16.25H30.373a12.668,12.668,0,0,0-25.137,0H2.049A15.837,15.837,0,0,1,17.8,2Z" transform="translate(1.195 1.167)" fill="#fdba12"/>
</svg>
