<svg xmlns="http://www.w3.org/2000/svg" width="12.032" height="12.028" viewBox="0 0 12.032 12.028">
  <g id="edit-svgrepo-com_3_" data-name="edit-svgrepo-com (3)" transform="translate(0 -0.087)">
    <g id="Group_33" data-name="Group 33" transform="translate(0 0.087)">
      <g id="Group_32" data-name="Group 32" transform="translate(0 0)">
        <path id="Path_33" data-name="Path 33" d="M83.511,147.5l-5.664,5.667a.421.421,0,1,0,.594.6L84.1,148.1a.422.422,0,0,0,0-.6A.417.417,0,0,0,83.511,147.5Z" transform="translate(-75.816 -143.76)"/>
        <path id="Path_34" data-name="Path 34" d="M301.68,4.794a.42.42,0,0,0,.3-.123l.618-.618a1.829,1.829,0,0,0,0-2.587l-.844-.844a1.831,1.831,0,0,0-2.587,0l-.618.618a.422.422,0,0,0,0,.6l2.837,2.837A.428.428,0,0,0,301.68,4.794Zm-1.919-3.581a.989.989,0,0,1,1.4,0l.844.844a.988.988,0,0,1,0,1.4l-.324.324-2.243-2.243Z" transform="translate(-291.099 -0.087)"/>
        <path id="Path_35" data-name="Path 35" d="M4,98.83l5.976-5.976a.422.422,0,0,0-.6-.6L3.5,98.135l-2.592.348.348-2.592,5.61-5.61a.422.422,0,0,0-.6-.6L.565,95.4a.418.418,0,0,0-.12.241L0,98.918a.421.421,0,0,0,.417.476.439.439,0,0,0,.056,0l3.279-.442A.394.394,0,0,0,4,98.83Z" transform="translate(0 -87.366)"/>
      </g>
    </g>
  </g>
</svg>
