<svg xmlns="http://www.w3.org/2000/svg" width="18.89" height="22.22" viewBox="0 0 18.89 22.22">
  <g id="technical-support-svgrepo-com" transform="translate(-35.795)">
    <path id="Path_416" data-name="Path 416" d="M54.616,319.293l-.473-1.391a6.673,6.673,0,0,0-6.037-4.518,5.313,5.313,0,0,1-.759.489,1.505,1.505,0,0,1-2.487.521,4.706,4.706,0,0,1-2.485-1.011,6.673,6.673,0,0,0-6.037,4.518l-.472,1.391a1.311,1.311,0,0,0,1.241,1.732H53.374a1.312,1.312,0,0,0,1.242-1.732Z" transform="translate(0 -298.806)" fill="#ed252c"/>
    <path id="Path_417" data-name="Path 417" d="M148.092,63.821a7.619,7.619,0,0,0,2.7-5.977c0-6.788-9.031-6.78-9.031,0,0,2.9,1.644,5.922,3.793,6.492a1.5,1.5,0,0,1,2.533-.515Z" transform="translate(-101.041 -50.302)" fill="#ed252c"/>
    <path id="Path_418" data-name="Path 418" d="M61.781,10.376a.733.733,0,0,0,1.444-.177c0-3.265.156-3.569-.281-3.924a5.391,5.391,0,0,1,10.668,0c-.436.355-.28.659-.28,3.923a.726.726,0,0,0,.334.6c0,2.54-1.03,2.391-4.128,3.212a.766.766,0,1,0,.168.721c2.5-.663,4.7-.872,4.7-3.372v-.513a.728.728,0,0,0,.37-.474,1.856,1.856,0,0,0,0-3.711.722.722,0,0,0-.345-.457,5.579,5.579,0,0,0-.514-2.651c-2.95-6.086-11.661-3.7-11.8,2.194a2.159,2.159,0,0,0,.008.457.722.722,0,0,0-.345.457,1.856,1.856,0,0,0,0,3.711Z" transform="translate(-23.038 0)" fill="#ed252c"/>
  </g>
</svg>
