<svg id="Group_9666" data-name="Group 9666" xmlns="http://www.w3.org/2000/svg" width="26.939" height="21.3" viewBox="0 0 26.939 21.3">
  <g id="Group_9665" data-name="Group 9665" transform="translate(0 0)">
    <path id="Path_1119" data-name="Path 1119" d="M90.437,79.181h2.84V77.287h1.893v-2.84H93.277V72.554h-2.84v1.893H88.544v2.84h1.893Zm-.947-2.84v-.947h1.893V73.5h.947v1.893h1.893v.947H92.331v1.893h-.947V76.341Z" transform="translate(-78.171 -66.874)" fill="#fdba12"/>
    <rect id="Rectangle_1609" data-name="Rectangle 1609" width="3.313" height="0.947" transform="translate(2.799 13.253)" fill="#fdba12"/>
    <rect id="Rectangle_1610" data-name="Rectangle 1610" width="3.313" height="0.947" transform="translate(2.799 15.146)" fill="#fdba12"/>
    <rect id="Rectangle_1611" data-name="Rectangle 1611" width="3.313" height="0.947" transform="translate(2.799 17.04)" fill="#fdba12"/>
    <rect id="Rectangle_1612" data-name="Rectangle 1612" width="3.313" height="0.947" transform="translate(20.786 13.253)" fill="#fdba12"/>
    <rect id="Rectangle_1613" data-name="Rectangle 1613" width="3.313" height="0.947" transform="translate(20.786 15.146)" fill="#fdba12"/>
    <rect id="Rectangle_1614" data-name="Rectangle 1614" width="3.313" height="0.947" transform="translate(20.786 17.04)" fill="#fdba12"/>
    <path id="Path_1120" data-name="Path 1120" d="M25.992,44.422h0V35.429H19.839V25.016h2.367v-.947H4.693v.947H7.059V35.429H.906v8.993H0v.947H26.939v-.947Zm-18.933,0H1.853V36.375H7.059Zm8.047,0H11.793V40.635h3.313Zm3.787-8.993v8.993h-2.84V39.689H10.846v4.733H8.006V25.016H18.893Zm6.153,8.993H19.839V36.375h5.207Z" transform="translate(0 -24.069)" fill="#fdba12"/>
  </g>
</svg>
