<svg xmlns="http://www.w3.org/2000/svg" width="26" height="26" viewBox="0 0 26 26">
  <g id="help-svgrepo-com_2_" data-name="help-svgrepo-com (2)" transform="translate(-0.048 -0.048)">
    <rect id="Rectangle_1589" data-name="Rectangle 1589" width="26" height="26" transform="translate(0.048 0.048)" fill="none"/>
    <g id="Group_9634" data-name="Group 9634" transform="translate(2.187 2.187)">
      <path id="Path_415" data-name="Path 415" d="M12.861,2A10.861,10.861,0,1,0,23.721,12.861,10.86,10.86,0,0,0,12.861,2Zm1.086,17.377H11.775V17.2h2.172Zm0-4.5v1.238H11.775V13.947a1.086,1.086,0,0,1,1.086-1.086,2.172,2.172,0,1,0-2.172-2.172H8.516a4.344,4.344,0,1,1,5.43,4.192Z" transform="translate(-2 -2)" fill="#ed252c"/>
    </g>
  </g>
</svg>
