<svg xmlns="http://www.w3.org/2000/svg" width="36.654" height="28.127" viewBox="0 0 36.654 28.127">
  <g id="coins-svgrepo-com" transform="translate(0 -56.994)">
    <path id="Path_46" data-name="Path 46" d="M15.253,58.493a12.668,12.668,0,0,0-6.222-1.5,12.668,12.668,0,0,0-6.222,1.5C1.014,59.527.019,60.938,0,62.471H0V79.655c0,3.065,3.967,5.466,9.031,5.466s9.031-2.4,9.031-5.466V62.492h0C18.053,60.951,17.056,59.532,15.253,58.493Zm1.238,10.9c0,2.119-3.416,3.909-7.46,3.909s-7.46-1.79-7.46-3.909V69.1a11.436,11.436,0,0,0,7.46,2.353,11.437,11.437,0,0,0,7.46-2.353Zm0,3.416c0,2.119-3.416,3.909-7.46,3.909s-7.46-1.79-7.46-3.909v-.289a11.437,11.437,0,0,0,7.46,2.353,11.437,11.437,0,0,0,7.46-2.353ZM1.571,75.935a11.436,11.436,0,0,0,7.46,2.353,11.436,11.436,0,0,0,7.46-2.353v.289c0,2.119-3.416,3.909-7.46,3.909s-7.46-1.79-7.46-3.909v-.289Zm14.92-9.961c0,2.119-3.416,3.909-7.46,3.909s-7.46-1.79-7.46-3.909v-.356a11.49,11.49,0,0,0,7.46,2.336,11.491,11.491,0,0,0,7.46-2.336Zm-12.9-6.119a11.085,11.085,0,0,1,5.438-1.29,11.086,11.086,0,0,1,5.438,1.29,3.4,3.4,0,0,1,2.022,2.658c0,2.1-3.416,3.87-7.46,3.87s-7.46-1.772-7.46-3.87A3.4,3.4,0,0,1,3.593,59.855ZM9.031,83.55c-4.044,0-7.46-1.784-7.46-3.895v-.3A11.437,11.437,0,0,0,9.031,81.7a11.437,11.437,0,0,0,7.46-2.353v.3C16.491,81.766,13.075,83.55,9.031,83.55Z" transform="translate(0 0)" fill="#616161"/>
    <path id="Path_47" data-name="Path 47" d="M266.581,194.9c-.006-1.544-1-2.967-2.808-4.007a13.663,13.663,0,0,0-12.445,0c-1.811,1.043-2.809,2.47-2.809,4.02h0v6.913c0,3.052,3.967,5.444,9.031,5.444s9.031-2.391,9.031-5.444V194.9h0Zm-1.571,3.474c0,2.119-3.416,3.909-7.46,3.909s-7.46-1.79-7.46-3.909v-.356a13.079,13.079,0,0,0,14.92,0Zm-12.9-6.119a12.112,12.112,0,0,1,10.877,0,3.4,3.4,0,0,1,2.022,2.658c0,2.1-3.416,3.87-7.46,3.87s-7.46-1.772-7.46-3.87A3.4,3.4,0,0,1,252.112,192.251ZM257.55,205.7c-4.044,0-7.46-1.773-7.46-3.872V201.5a13,13,0,0,0,14.92,0v.326C265.01,203.922,261.594,205.7,257.55,205.7Z" transform="translate(-229.926 -122.491)" fill="#616161"/>
  </g>
</svg>
