<svg xmlns="http://www.w3.org/2000/svg" width="21.174" height="24" viewBox="0 0 21.174 24">
  <path id="note-svgrepo-com" d="M37.588.645A.621.621,0,0,0,36.972,0H17.1a.67.67,0,0,0-.674.645v22.71A.67.67,0,0,0,17.1,24H28.5a.645.645,0,0,0,.458-.191l4.221-4.264,4.25-4.25a.631.631,0,0,0,.173-.464c0-.012-.013-.024-.013-.036V.645ZM35.414,15.484,29.072,21.8V15.484ZM22.069,3.441H32A.732.732,0,0,1,32,4.9H22.069a.732.732,0,0,1,0-1.462Zm0,3.527H32A.732.732,0,0,1,32,8.43H22.069a.732.732,0,0,1,0-1.462Zm-.71,4.3a.692.692,0,0,1,.71-.688H32a.688.688,0,1,1,0,1.376H22.069A.692.692,0,0,1,21.359,11.269Z" transform="translate(-16.427)" fill="#ed252c"/>
</svg>
