<svg xmlns="http://www.w3.org/2000/svg" width="17.654" height="25.579" viewBox="0 0 17.654 25.579">
  <g id="notification-svgrepo-com" transform="translate(-79.316)">
    <g id="Group_23" data-name="Group 23" transform="translate(79.316)">
      <g id="Group_22" data-name="Group 22">
        <path id="Path_44" data-name="Path 44" d="M96.8,18.155l-2.27-3.212V8.669a6.394,6.394,0,0,0-5.449-6.316V.936a.936.936,0,1,0-1.872,0V2.353a6.394,6.394,0,0,0-5.449,6.316v6.275l-2.27,3.212a.936.936,0,0,0,.764,1.476h15.78A.936.936,0,0,0,96.8,18.155Z" transform="translate(-79.316)" fill="#fff"/>
        <path id="Path_45" data-name="Path 45" d="M205.8,406.313a2.64,2.64,0,1,0,2.64,2.64A2.643,2.643,0,0,0,205.8,406.313Z" transform="translate(-196.969 -386.014)" fill="#fff"/>
      </g>
    </g>
  </g>
</svg>
