<?xml version="1.0" encoding="iso-8859-1"?>
<!-- Generator: Adobe Illustrator 19.0.0, SVG Export Plug-In . SVG Version: 6.00 Build 0)  -->
<svg version="1.1" id="Layer_1" xmlns="http://www.w3.org/2000/svg" xmlns:xlink="http://www.w3.org/1999/xlink" x="0px" y="0px"
	 viewBox="0 0 512 512" style="enable-background:new 0 0 512 512;" xml:space="preserve">
<rect x="94.698" y="73.04" style="fill:#C3E825;" width="417.302" height="216.999"/>
<rect x="303.349" y="73.04" style="fill:#A8DD5E;" width="208.651" height="216.999"/>
<g>
	<path style="fill:#86C37E;" d="M440.402,73.045c0,39.542,32.056,71.598,71.598,71.598V73.045H440.402z"/>
	<path style="fill:#86C37E;" d="M512,218.445c-39.542,0-71.598,32.056-71.598,71.598H512V218.445z"/>
</g>
<g>
	<path style="fill:#A8DD5E;" d="M166.295,73.045c0,39.542-32.056,71.598-71.598,71.598V73.045H166.295z"/>
	<path style="fill:#A8DD5E;" d="M94.698,218.445c39.542,0,71.598,32.056,71.598,71.598H94.698V218.445z"/>
</g>
<ellipse style="fill:#EDEDEE;" cx="303.349" cy="181.54" rx="69.957" ry="49.874"/>
<path style="fill:#DDDCDF;" d="M373.306,181.543c0,27.544-31.321,49.874-69.957,49.874c0-23.482,0-83.245,0-99.749
	C341.985,131.669,373.306,153.998,373.306,181.543z"/>
<path style="fill:#E3744E;" d="M270.092,438.96H39.716C17.816,438.96,0,421.143,0,399.244V274.438
	c0-21.899,17.816-39.716,39.716-39.716h230.377c21.899,0,39.716,17.816,39.716,39.716v124.808
	C309.807,421.143,291.99,438.96,270.092,438.96z"/>
<path style="fill:#E05323;" d="M270.092,438.96H154.903V234.722h115.189c21.899,0,39.716,17.816,39.716,39.716v124.808
	C309.807,421.143,291.99,438.96,270.092,438.96z"/>
<rect y="280.901" style="fill:#7F7F83;" width="309.805" height="40.192"/>
<rect x="154.902" y="280.901" style="fill:#5B5B5F;" width="154.902" height="40.192"/>
<rect x="37.329" y="349.631" style="fill:#EDEDEE;" width="47.776" height="33.391"/>
<circle style="fill:#E3744E;" cx="277.526" cy="404.148" r="16.829"/>
<circle style="fill:#F5DC49;" cx="256.735" cy="404.148" r="16.829"/>
<g>
</g>
<g>
</g>
<g>
</g>
<g>
</g>
<g>
</g>
<g>
</g>
<g>
</g>
<g>
</g>
<g>
</g>
<g>
</g>
<g>
</g>
<g>
</g>
<g>
</g>
<g>
</g>
<g>
</g>
</svg>
