<svg id="_10257477141582779198" data-name="10257477141582779198" xmlns="http://www.w3.org/2000/svg" width="31.937" height="31.937" viewBox="0 0 31.937 31.937">
  <path id="Path_43" data-name="Path 43" d="M29.8,7.953a15.9,15.9,0,0,0-5.811-5.811A15.62,15.62,0,0,0,15.969,0,15.62,15.62,0,0,0,7.953,2.142,15.9,15.9,0,0,0,2.142,7.953,15.619,15.619,0,0,0,0,15.968a15.623,15.623,0,0,0,2.142,8.015A15.9,15.9,0,0,0,7.953,29.8a15.621,15.621,0,0,0,8.015,2.142A15.621,15.621,0,0,0,23.984,29.8,15.9,15.9,0,0,0,29.8,23.984a15.622,15.622,0,0,0,2.141-8.015A15.623,15.623,0,0,0,29.8,7.953Zm-11.165,18a.641.641,0,0,1-.665.665H13.973a.64.64,0,0,1-.665-.665V21.956a.64.64,0,0,1,.665-.665h3.993a.64.64,0,0,1,.665.665ZM23.693,13.66a5.5,5.5,0,0,1-.582,1.258,4.818,4.818,0,0,1-.926,1,8.677,8.677,0,0,1-.957.728q-.353.218-1.018.592a3.5,3.5,0,0,0-1.133,1.029,1.978,1.978,0,0,0-.447,1.029.641.641,0,0,1-.665.665H13.973a.64.64,0,0,1-.665-.665v-.749a3.847,3.847,0,0,1,1.091-2.61,7.122,7.122,0,0,1,2.4-1.8,4.207,4.207,0,0,0,1.414-.936,1.863,1.863,0,0,0,.416-1.268,1.515,1.515,0,0,0-.78-1.227,3.045,3.045,0,0,0-1.778-.54,3.026,3.026,0,0,0-1.788.5A10.363,10.363,0,0,0,12.5,12.579a.613.613,0,0,1-.52.25.588.588,0,0,1-.4-.124L8.837,10.625a.594.594,0,0,1-.166-.873,8.491,8.491,0,0,1,7.714-4.429A8.1,8.1,0,0,1,22.8,8.587a5.583,5.583,0,0,1,1.154,3.389A5.276,5.276,0,0,1,23.693,13.66Z" transform="translate(0 0)" fill="#616161"/>
</svg>
