<svg xmlns="http://www.w3.org/2000/svg" width="24.454" height="24.453" viewBox="0 0 24.454 24.453">
  <g id="XMLID_2_" transform="translate(0.001 -0.002)">
    <path id="XMLID_4_" d="M1.111,9.635H2.223v7.41H4.446V9.635H8.151v7.41h2.223V9.635h3.705v7.41H16.3V9.635h3.705v7.41H22.23V9.635h1.112A1.112,1.112,0,0,0,23.958,7.6L12.843.188a1.112,1.112,0,0,0-1.233,0L.494,7.6a1.112,1.112,0,0,0,.617,2.036Z" transform="translate(0)" fill="#ed252c"/>
    <path id="XMLID_5_" d="M23.343,260H1.113A1.112,1.112,0,0,0,0,261.113v2.964a1.112,1.112,0,0,0,1.112,1.112h22.23a1.112,1.112,0,0,0,1.112-1.112v-2.964A1.112,1.112,0,0,0,23.343,260Z" transform="translate(-0.002 -240.733)" fill="#ed252c"/>
  </g>
</svg>
