<svg xmlns="http://www.w3.org/2000/svg" width="24.002" height="24" viewBox="0 0 24.002 24">
  <path id="_13997075391582988868" data-name="13997075391582988868" d="M13.629,1.63a12,12,0,0,0-6.973,21.76c.149.109.3.211.456.313a11.988,11.988,0,0,0,13.035,0c.152-.1.3-.2.45-.31A12,12,0,0,0,13.629,1.63ZM20.3,19.96a1.431,1.431,0,0,0-.741-.9c-1.34-.667-4.284-1.656-4.284-1.656v-.971l.081-.062a2.818,2.818,0,0,0,1.07-1.787l.016-.1h.081a1.091,1.091,0,0,0,1.005-.676,1.186,1.186,0,0,0,.146-.574,1.107,1.107,0,0,0-.074-.4.578.578,0,0,0-.22-.351l-.27-.164.068-.295A3.412,3.412,0,0,0,13.79,7.9c-.056,0-.109,0-.161,0s-.109,0-.161,0a3.412,3.412,0,0,0-3.39,4.116l.068.295-.273.164a.56.56,0,0,0-.217.351,1.11,1.11,0,0,0-.078.4,1.189,1.189,0,0,0,.149.574,1.087,1.087,0,0,0,1.005.676h.078l.019.1a2.814,2.814,0,0,0,1.067,1.787l.081.062V17.4s-2.941.99-4.284,1.656a1.426,1.426,0,0,0-.738.9,9.207,9.207,0,1,1,13.351,0Z" transform="translate(-1.626 -1.63)" fill="#ed252c"/>
</svg>
