<svg xmlns="http://www.w3.org/2000/svg" width="25.268" height="23.366" viewBox="0 0 25.268 23.366">
  <g id="share-svgrepo-com_1_" data-name="share-svgrepo-com (1)" transform="translate(0 -10.117)">
    <path id="Path_409" data-name="Path 409" d="M0,101.482v3.42a.969.969,0,0,0,.969.969H4.112v-3.684a7.785,7.785,0,0,1,.859-3.56,4.6,4.6,0,0,1-2.932-1.295A5.237,5.237,0,0,0,0,101.482Z" transform="translate(0 -79.014)" fill="#ed252c"/>
    <path id="Path_410" data-name="Path 410" d="M27.1,33.11a5.319,5.319,0,0,1-.475-4.523,3.2,3.2,0,1,0-.962,5.852A7.9,7.9,0,0,1,27.1,33.11Z" transform="translate(-19.711 -16.308)" fill="#ed252c"/>
    <path id="Path_411" data-name="Path 411" d="M69.292,98.279a3.528,3.528,0,0,1,1.489.331l.8-.583a6.417,6.417,0,0,0-2.753-5.15,5.317,5.317,0,0,1-7.341,0,6.418,6.418,0,0,0-2.756,5.274v4.189a1.187,1.187,0,0,0,1.187,1.187H66.2a3.536,3.536,0,0,1,3.1-5.247Z" transform="translate(-53.206 -74.977)" fill="#ed252c"/>
    <circle id="Ellipse_44" data-name="Ellipse 44" cx="3.921" cy="3.921" r="3.921" transform="translate(8.028 10.117)" fill="#ed252c"/>
    <path id="Path_412" data-name="Path 412" d="M158.631,126.854a2.022,2.022,0,0,0-.9.211l-3.811-2.787,3.783-2.767a2.059,2.059,0,1,0-1.087-1.535l-3.795,2.776a2.034,2.034,0,1,0,0,3.053l3.8,2.779a2.032,2.032,0,1,0,2.009-1.73Z" transform="translate(-135.397 -97.438)" fill="#ed252c"/>
  </g>
</svg>
