<svg xmlns="http://www.w3.org/2000/svg" width="22" height="22" viewBox="0 0 22 22">
  <path id="rupee-circle-svgrepo-com" d="M1,12A11,11,0,1,1,12,23,11,11,0,0,1,1,12ZM8,6A1,1,0,0,0,8,8h3a2.347,2.347,0,0,1,1.29.412A1.576,1.576,0,0,1,12.8,9H8a1,1,0,0,0,0,2h4.8a1.58,1.58,0,0,1-.5.588A2.352,2.352,0,0,1,11,12H8a1,1,0,0,0-.625,1.781l5,4a1,1,0,1,0,1.25-1.562L10.848,14H11a4.347,4.347,0,0,0,2.46-.789A3.621,3.621,0,0,0,14.9,11H16a1,1,0,0,0,0-2H14.9a3.81,3.81,0,0,0-.367-1H16a1,1,0,0,0,0-2Z" transform="translate(-1 -1)" fill="#ed252c" fill-rule="evenodd"/>
</svg>
