<?xml version="1.0" encoding="iso-8859-1"?>
<!-- Generator: Adobe Illustrator 18.0.0, SVG Export Plug-In . SVG Version: 6.00 Build 0)  -->
<!DOCTYPE svg PUBLIC "-//W3C//DTD SVG 1.1//EN" "http://www.w3.org/Graphics/SVG/1.1/DTD/svg11.dtd">
<svg version="1.1" id="Capa_1" xmlns="http://www.w3.org/2000/svg" xmlns:xlink="http://www.w3.org/1999/xlink" x="0px" y="0px"
	 viewBox="0 0 395 395" style="enable-background:new 0 0 395 395;" xml:space="preserve">
<g>
	<path d="M298.845,216.663h-16.362c-1.245,0-2.358,0.776-2.79,1.944l-2.048,5.542l-14.599-34.21
		c-3.096-7.245-10.218-11.95-18.1-11.95h-94.893c-7.884,0-15.003,4.705-18.1,11.95l-14.599,34.215l-2.052-5.548
		c-0.432-1.168-1.545-1.943-2.79-1.943H96.155c-1.643,0-2.975,1.332-2.975,2.975v13.687c0,1.643,1.332,2.975,2.975,2.975h15.116
		l-7.635,15.237c-1.373,2.735-2.085,5.761-2.083,8.823l0.01,29.453c0.003,9.254,6.407,16.993,15.021,19.087v12.274
		c0,3.289,2.662,5.953,5.947,5.953h19.037c3.287,0,5.953-2.664,5.953-5.953v-11.696h99.955v11.696c0,3.289,2.662,5.953,5.947,5.953
		h19.043c3.288,0,5.951-2.664,5.951-5.953v-12.275c8.61-2.095,15.012-9.833,15.016-19.086l0.013-29.453
		c0.001-3.063-0.713-6.088-2.087-8.823l-7.632-15.237h15.117c1.643,0,2.974-1.332,2.974-2.975v-13.687
		C301.818,217.995,300.487,216.663,298.845,216.663z M152.881,195.684h89.238l13.967,32.723H138.911L152.881,195.684z
		 M160.969,275.5c0,1.475-1.196,2.671-2.67,2.671h-28.29c-1.479,0-2.668-1.196-2.668-2.671v-12.212c0-1.476,1.19-2.671,2.668-2.671
		h28.29c1.474,0,2.67,1.195,2.67,2.671V275.5z M267.66,275.5c0,1.475-1.193,2.671-2.67,2.671h-28.291
		c-1.477,0-2.669-1.196-2.669-2.671v-12.212c0-1.476,1.192-2.671,2.669-2.671h28.291c1.477,0,2.67,1.195,2.67,2.671V275.5z"/>
	<path d="M218.514,157.225c9.322-9.325,11.636-23.001,6.944-34.483l35.488-35.49c0.467-0.464,0.753-1.088,0.809-1.748l1.184-14.615
		c0.066-0.815-0.228-1.618-0.809-2.199c-0.579-0.579-1.381-0.87-2.2-0.809l-14.615,1.187c-0.659,0.052-1.279,0.336-1.746,0.809
		l-6.058,6.059l3.983,3.979c1.419,1.418,1.417,3.718,0,5.137c-1.417,1.416-3.717,1.418-5.138,0l-3.982-3.982l-3.42,3.424
		l7.407,7.406c1.416,1.417,1.416,3.714-0.005,5.132c-1.418,1.418-3.712,1.418-5.129,0.003l-7.409-7.409l-2.898,2.902l4.805,4.802
		c1.421,1.417,1.423,3.72,0.004,5.137c-1.42,1.417-3.721,1.415-5.138,0l-4.806-4.804l-7.702,7.704
		c-11.488-4.694-25.165-2.374-34.485,6.942c-12.401,12.407-12.401,32.514,0,44.919C186.002,169.624,206.111,169.624,218.514,157.225
		z M179.173,133.94c2.972-2.975,7.789-2.975,10.76,0l6.951,6.952c2.972,2.967,2.972,7.788,0,10.754
		c-2.971,2.976-7.786,2.976-10.757,0l-6.954-6.952C176.201,141.729,176.201,136.909,179.173,133.94z"/>
	<path d="M313.002,0H82C36.785,0,0,36.784,0,81.998v230.993C0,358.211,36.785,395,82,395h231.002
		C358.216,395,395,358.211,395,312.991V81.998C395,36.784,358.216,0,313.002,0z M380,312.991C380,349.94,349.944,380,313.002,380H82
		c-36.944,0-67-30.06-67-67.009V81.998C15,45.055,45.056,15,82,15h231.002C349.944,15,380,45.055,380,81.998V312.991z"/>
</g>
<g>
</g>
<g>
</g>
<g>
</g>
<g>
</g>
<g>
</g>
<g>
</g>
<g>
</g>
<g>
</g>
<g>
</g>
<g>
</g>
<g>
</g>
<g>
</g>
<g>
</g>
<g>
</g>
<g>
</g>
</svg>
