<svg xmlns="http://www.w3.org/2000/svg" width="30.639" height="30.639" viewBox="0 0 30.639 30.639">
  <g id="time-svgrepo-com_5_" data-name="time-svgrepo-com (5)" transform="translate(-0.001)">
    <path id="Path_421" data-name="Path 421" d="M15.32,0A15.32,15.32,0,1,0,30.64,15.32,15.337,15.337,0,0,0,15.32,0Zm0,28.425a13.1,13.1,0,1,1,13.1-13.105A13.12,13.12,0,0,1,15.32,28.425Z" fill="#616161"/>
    <path id="Path_422" data-name="Path 422" d="M44.04,28.716h-.017l-3.308.049V20.107a1.107,1.107,0,1,0-2.215,0V29.89s0,0,0,.007,0,.007,0,.01a1.081,1.081,0,0,0,.015.131c0,.027,0,.055.009.081a1.048,1.048,0,0,0,.042.137c.008.023.013.048.023.07a1.147,1.147,0,0,0,.07.129c.011.019.02.04.032.058a1.169,1.169,0,0,0,.095.115c.014.016.025.033.04.048a1.164,1.164,0,0,0,.116.1c.016.012.031.027.047.038a1.073,1.073,0,0,0,.139.076c.017.008.031.019.048.026a1.136,1.136,0,0,0,.174.054c.011,0,.021.008.033.01a1.125,1.125,0,0,0,.222.023h.017l4.433-.066a1.108,1.108,0,0,0-.016-2.215Z" transform="translate(-24.287 -11.986)" fill="#616161"/>
  </g>
</svg>
