<svg id="share-svgrepo-com" xmlns="http://www.w3.org/2000/svg" width="15.97" height="18.899" viewBox="0 0 15.97 18.899">
  <g id="Group_144" data-name="Group 144" transform="translate(0)">
    <path id="Path_72" data-name="Path 72" d="M59.8,12.961a3.285,3.285,0,0,0-1.691.463l-4.935-3.242a2.8,2.8,0,0,0,0-1.638l4.8-3.154a3.276,3.276,0,0,0,1.825.547,3.066,3.066,0,0,0,3.155-2.969,3.161,3.161,0,0,0-6.311,0,2.81,2.81,0,0,0,.072.631L51.8,6.834a3.288,3.288,0,0,0-1.652-.44,3.066,3.066,0,0,0-3.155,2.969,3.066,3.066,0,0,0,3.155,2.969,3.289,3.289,0,0,0,1.652-.44l4.962,3.259a2.807,2.807,0,0,0-.11.778,3.161,3.161,0,0,0,6.311,0A3.066,3.066,0,0,0,59.8,12.961Z" transform="translate(-46.989)" fill="#0f0f0f"/>
  </g>
</svg>
