<svg xmlns="http://www.w3.org/2000/svg" width="19.094" height="17.503" viewBox="0 0 19.094 17.503">
  <g id="Group_9623" data-name="Group 9623" transform="translate(-352.497 -688.048)">
    <path id="XMLID_222_" d="M84.314,8.188,76.358.233a.8.8,0,1,0-1.125,1.125l7.393,7.393-7.393,7.393a.8.8,0,1,0,1.125,1.125l7.956-7.956a.8.8,0,0,0,0-1.125Z" transform="translate(287.043 688.049)" fill="#0f0f0f"/>
    <path id="XMLID_222_2" data-name="XMLID_222_" d="M84.314,8.188,76.358.233a.8.8,0,1,0-1.125,1.125l7.393,7.393-7.393,7.393a.8.8,0,1,0,1.125,1.125l7.956-7.956a.8.8,0,0,0,0-1.125Z" transform="translate(277.497 688.049)" fill="#0f0f0f"/>
  </g>
</svg>
