<svg xmlns="http://www.w3.org/2000/svg" width="16.385" height="16.388" viewBox="0 0 16.385 16.388">
  <g id="upload-svgrepo-com_1_" data-name="upload-svgrepo-com (1)" transform="translate(-11 -10.9)">
    <g id="Group_9610" data-name="Group 9610" transform="translate(11 10.9)">
      <path id="Path_146" data-name="Path 146" d="M152.372,15.083a.694.694,0,0,0,.966-.033l1.605-1.725v9.938a.682.682,0,0,0,1.364,0V13.321l1.605,1.725a.684.684,0,0,0,1-.933l-2.789-3a.692.692,0,0,0-.5-.217.68.68,0,0,0-.5.217l-2.789,3a.683.683,0,0,0,.033.97Z" transform="translate(-147.433 -10.9)" fill="#666"/>
      <path id="Path_147" data-name="Path 147" d="M26.7,335a.681.681,0,0,0-.682.682v3.5H12.364v-3.5a.682.682,0,0,0-1.364,0v4.186a.681.681,0,0,0,.682.682H26.7a.681.681,0,0,0,.682-.682v-4.186A.681.681,0,0,0,26.7,335Z" transform="translate(-11 -324.163)" fill="#666"/>
    </g>
  </g>
</svg>
