<svg xmlns="http://www.w3.org/2000/svg" width="23.053" height="21.246" viewBox="0 0 23.053 21.246">
  <g id="XMLID_830_" transform="translate(0 -17.969)">
    <g id="Group_9632" data-name="Group 9632" transform="translate(0 17.969)">
      <g id="Group_9631" data-name="Group 9631" transform="translate(0 0)">
        <path id="Path_406" data-name="Path 406" d="M16.927,113.681h0a2.006,2.006,0,0,1-2-2v-3.327a2.006,2.006,0,0,1,2-2h5.22l.094,0v-3.314a1.545,1.545,0,0,0-1.545-1.545H1.545A1.545,1.545,0,0,0,0,103.036v13.958a1.545,1.545,0,0,0,1.545,1.545H20.7a1.545,1.545,0,0,0,1.545-1.545v-3.314l-.094,0Z" transform="translate(0 -97.292)" fill="#ed252c"/>
        <path id="Path_407" data-name="Path 407" d="M324.8,219.925h-5.22a.906.906,0,0,0-.906.906v3.327a.906.906,0,0,0,.906.906h5.22a.906.906,0,0,0,.906-.906v-3.327A.906.906,0,0,0,324.8,219.925Zm-3.421,3.876a1.307,1.307,0,1,1,1.307-1.307A1.307,1.307,0,0,1,321.379,223.8Z" transform="translate(-302.653 -209.772)" fill="#ed252c"/>
        <path id="Path_408" data-name="Path 408" d="M162.325,19.339a2,2,0,0,0-2.52-1.268l-7.848,2.593h10.8Z" transform="translate(-144.318 -17.969)" fill="#ed252c"/>
      </g>
    </g>
  </g>
</svg>
